<?xml version="1.0" standalone="no"?>
<!DOCTYPE svg PUBLIC "-//W3C//DTD SVG 20010904//EN"
 "http://www.w3.org/TR/2001/REC-SVG-20010904/DTD/svg10.dtd">
<svg version="1.0" xmlns="http://www.w3.org/2000/svg"
 width="512.000000pt" height="512.000000pt" viewBox="0 0 512.000000 512.000000"
 preserveAspectRatio="xMidYMid meet">
<metadata>
Created by potrace 1.16, written by Peter Selinger 2001-2019
</metadata>
<g transform="translate(0.000000,512.000000) scale(0.100000,-0.100000)"
fill="#ffffff" stroke="none">
<path d="M1658 4793 c-15 -16 -146 -190 -292 -388 -288 -391 -294 -402 -240
-444 22 -17 41 -21 100 -21 47 0 74 -4 74 -11 0 -6 -133 -205 -295 -443 -162
-238 -298 -444 -304 -457 -14 -37 -2 -76 31 -104 27 -23 38 -25 119 -25 54 0
89 -4 89 -10 0 -6 -144 -208 -319 -449 -176 -241 -323 -450 -327 -465 -3 -14
-1 -40 6 -57 20 -47 55 -59 174 -59 58 0 107 -3 109 -7 3 -5 -98 -192 -225
-418 -284 -508 -278 -496 -278 -518 0 -27 27 -75 49 -87 13 -6 242 -10 665
-10 l646 0 0 -231 0 -231 29 -29 29 -29 226 0 c223 0 225 0 253 24 l28 24 3
236 3 236 195 0 195 0 -6 22 c-12 35 -7 96 9 129 8 16 79 145 158 286 78 141
138 258 133 260 -103 34 -160 126 -141 227 4 23 67 117 187 282 100 136 183
252 185 259 3 7 -90 142 -205 301 -116 159 -211 295 -211 302 0 9 25 12 91 12
87 0 92 1 120 29 60 60 62 56 -275 551 -167 245 -302 448 -299 453 2 4 38 7
79 7 66 0 78 3 99 25 14 13 25 35 25 49 0 16 -91 148 -271 392 -149 203 -282
379 -295 392 -36 32 -93 30 -126 -5z"/>
<path d="M3686 3863 c-164 -212 -406 -551 -406 -570 0 -38 26 -53 90 -53 32 0
61 -4 64 -8 3 -5 -101 -163 -230 -352 -254 -374 -261 -387 -208 -429 21 -17
41 -21 95 -21 38 0 69 -2 69 -5 0 -3 -112 -160 -250 -349 -262 -360 -270 -374
-234 -424 14 -20 24 -22 104 -22 51 0 92 -4 95 -10 4 -6 -79 -164 -184 -352
-202 -361 -212 -387 -171 -428 19 -19 33 -20 520 -20 l500 0 0 -226 c0 -228 4
-254 39 -281 11 -9 68 -12 187 -13 238 0 218 -26 222 279 l3 241 498 0 c472 0
500 1 522 19 46 37 36 62 -170 429 -105 188 -189 347 -186 352 3 6 46 10 94
10 101 0 121 12 121 71 0 29 -38 87 -249 376 -137 188 -246 344 -243 347 3 3
33 6 67 6 48 0 68 5 89 21 53 42 47 55 -208 430 -129 189 -232 347 -229 352 2
4 33 7 68 7 68 0 85 12 85 58 0 17 -379 543 -432 600 -14 14 -33 22 -55 22
-28 0 -39 -8 -77 -57z"/>
</g>
</svg>
