<?xml version="1.0" standalone="no"?>
<!DOCTYPE svg PUBLIC "-//W3C//DTD SVG 20010904//EN"
 "http://www.w3.org/TR/2001/REC-SVG-20010904/DTD/svg10.dtd">
<svg version="1.0" xmlns="http://www.w3.org/2000/svg"
 width="512.000000pt" height="512.000000pt" viewBox="0 0 512.000000 512.000000"
 preserveAspectRatio="xMidYMid meet">
<metadata>
Created by potrace 1.16, written by Peter Selinger 2001-2019
</metadata>
<g transform="translate(0.000000,512.000000) scale(0.100000,-0.100000)"
fill="#ffffff" stroke="none">
<path d="M2826 4809 c-700 -72 -1311 -354 -1799 -828 -77 -75 -174 -177 -216
-228 -413 -493 -669 -1095 -770 -1808 -35 -247 -41 -385 -41 -964 l0 -568 23
-33 c12 -18 35 -43 50 -54 l28 -21 2459 0 2459 0 28 21 c15 11 38 36 51 54 22
33 22 35 22 425 0 390 0 392 -22 425 -47 69 -61 73 -246 82 -415 19 -678 58
-950 144 -617 193 -998 572 -1087 1081 -65 374 67 811 297 981 142 105 292
139 433 97 233 -67 359 -233 421 -555 16 -81 18 -153 20 -490 1 -276 5 -409
13 -440 30 -110 120 -176 230 -168 216 15 520 354 665 740 144 386 112 869
-81 1225 -257 475 -728 776 -1357 869 -123 18 -507 26 -630 13z m-972 -1851
c-31 -60 -93 -236 -118 -334 -78 -312 -81 -670 -6 -964 91 -356 290 -700 523
-904 34 -30 78 -68 97 -85 l35 -30 -387 -1 -386 0 -40 73 c-109 200 -184 429
-218 672 -24 176 -15 454 20 627 69 340 215 643 441 917 28 34 51 61 53 61 1
0 -5 -14 -14 -32z"/>
</g>
</svg>
