<?xml version="1.0" standalone="no"?>
<!DOCTYPE svg PUBLIC "-//W3C//DTD SVG 20010904//EN"
 "http://www.w3.org/TR/2001/REC-SVG-20010904/DTD/svg10.dtd">
<svg version="1.0" xmlns="http://www.w3.org/2000/svg"
 width="512.000000pt" height="512.000000pt" viewBox="0 0 512.000000 512.000000"
 preserveAspectRatio="xMidYMid meet">
<metadata>
Created by potrace 1.16, written by Peter Selinger 2001-2019
</metadata>
<g transform="translate(0.000000,512.000000) scale(0.100000,-0.100000)"
fill="#ffffff" stroke="none">
<path d="M2025 5109 c-176 -27 -346 -95 -458 -184 -111 -88 -198 -239 -226
-389 -18 -96 -14 -260 9 -353 74 -311 322 -497 723 -544 126 -15 421 -6 567
16 457 70 839 228 1020 422 86 91 122 171 128 279 5 94 -12 159 -63 239 -144
227 -550 416 -1072 501 -115 19 -535 28 -628 13z"/>
<path d="M3685 3723 c-309 -213 -835 -364 -1326 -380 -367 -12 -629 44 -860
183 l-92 56 -41 -23 c-184 -101 -362 -258 -423 -375 -156 -296 -21 -596 374
-830 301 -178 750 -318 1223 -381 169 -22 628 -25 760 -5 307 47 523 144 686
306 183 182 265 419 251 726 -15 343 -157 589 -437 758 l-35 21 -80 -56z"/>
<path d="M1083 2083 c-322 -194 -493 -519 -493 -938 0 -560 310 -939 888
-1084 201 -51 270 -56 737 -56 450 0 601 8 905 46 716 89 1136 301 1317 664
82 163 115 406 78 564 -48 200 -246 413 -532 571 l-42 23 -98 -45 c-245 -115
-524 -168 -883 -168 -578 0 -1192 141 -1667 381 l-152 77 -58 -35z"/>
</g>
</svg>
